<svg xmlns="http://www.w3.org/2000/svg" width="139.973" height="131.875" viewBox="0 0 139.973 131.875">
  <defs>
    <style>
      .cls-1, .cls-2 {
        fill: none;
        stroke: #ed3239;
        stroke-linecap: round;
      }

      .cls-1 {
        stroke-width: 9px;
      }

      .cls-2 {
        stroke-width: 7px;
      }
    </style>
  </defs>
  <g id="Group_15" data-name="Group 15" transform="translate(5.294 5.297)">
    <path id="Icon_ionic-ios-settings" data-name="Icon ionic-ios-settings" class="cls-1" d="M84.56,48.12a11.226,11.226,0,0,1,7.2-10.473,44.492,44.492,0,0,0-5.386-12.973,11.382,11.382,0,0,1-4.568.977A11.2,11.2,0,0,1,71.561,9.884,44.381,44.381,0,0,0,58.608,4.5a11.22,11.22,0,0,1-20.952,0A44.516,44.516,0,0,0,24.68,9.884,11.2,11.2,0,0,1,14.431,25.651a11.012,11.012,0,0,1-4.568-.977,45.475,45.475,0,0,0-5.363,13,11.213,11.213,0,0,1,7.2,10.473A11.239,11.239,0,0,1,4.523,58.617,44.492,44.492,0,0,0,9.909,71.589,11.207,11.207,0,0,1,24.7,86.379a44.776,44.776,0,0,0,12.976,5.384,11.2,11.2,0,0,1,20.907,0,44.516,44.516,0,0,0,12.976-5.384,11.219,11.219,0,0,1,14.794-14.79,44.752,44.752,0,0,0,5.386-12.973A11.28,11.28,0,0,1,84.56,48.12ZM48.336,66.273A18.175,18.175,0,1,1,66.516,48.1,18.173,18.173,0,0,1,48.336,66.273Z" transform="translate(-4.5 -4.5)"/>
    <path id="Icon_ionic-ios-settings-2" data-name="Icon ionic-ios-settings" class="cls-2" d="M53.92,31.426a6.93,6.93,0,0,1,4.447-6.465,27.465,27.465,0,0,0-3.325-8.008,7.026,7.026,0,0,1-2.82.6A6.915,6.915,0,0,1,45.9,7.824a27.4,27.4,0,0,0-8-3.324,6.926,6.926,0,0,1-12.934,0,27.48,27.48,0,0,0-8.01,3.324,6.915,6.915,0,0,1-6.327,9.733,6.8,6.8,0,0,1-2.82-.6A28.072,28.072,0,0,0,4.5,24.975a6.927,6.927,0,0,1,.014,12.93,27.464,27.464,0,0,0,3.325,8.008,6.918,6.918,0,0,1,9.132,9.13,27.64,27.64,0,0,0,8.01,3.324,6.914,6.914,0,0,1,12.906,0,27.48,27.48,0,0,0,8.01-3.324,6.926,6.926,0,0,1,9.132-9.13,27.625,27.625,0,0,0,3.325-8.008A6.963,6.963,0,0,1,53.92,31.426ZM31.56,42.632A11.219,11.219,0,1,1,42.782,31.412,11.218,11.218,0,0,1,31.56,42.632Z" transform="translate(72.197 64.09)"/>
  </g>
</svg>
